<svg width="16" height="16" viewBox="0 0 16 16" fill="none" xmlns="http://www.w3.org/2000/svg">
<path d="M2.66665 5.33333V12.6667C2.66665 13.0203 2.80712 13.3594 3.05717 13.6095C3.30722 13.8595 3.64636 14 3.99998 14H12C12.3536 14 12.6927 13.8595 12.9428 13.6095C13.1928 13.3594 13.3333 13.0203 13.3333 12.6667V5.33333M6.66665 8H9.33331M1.99998 2H14C14.3682 2 14.6666 2.29848 14.6666 2.66667V4.66667C14.6666 5.03486 14.3682 5.33333 14 5.33333H1.99998C1.63179 5.33333 1.33331 5.03486 1.33331 4.66667V2.66667C1.33331 2.29848 1.63179 2 1.99998 2Z" stroke="white" stroke-opacity="0.72" stroke-width="1.33" stroke-linecap="round" stroke-linejoin="round"/>
</svg>
