<svg width="16" height="16" viewBox="0 0 16 16" fill="none" xmlns="http://www.w3.org/2000/svg">
<path d="M2.66665 14.6667H12C12.3536 14.6667 12.6927 14.5262 12.9428 14.2761C13.1928 14.0261 13.3333 13.687 13.3333 13.3333V4.66666L9.99998 1.33333H3.99998C3.64636 1.33333 3.30722 1.4738 3.05717 1.72385C2.80712 1.9739 2.66665 2.31304 2.66665 2.66666V3.33333M9.33331 1.33333V3.99999C9.33331 4.35362 9.47379 4.69276 9.72384 4.9428C9.97389 5.19285 10.313 5.33333 10.6666 5.33333H13.3333M5.33331 8.66666V7.33333C5.33331 6.97971 5.19284 6.64057 4.94279 6.39052C4.69274 6.14047 4.3536 6 3.99998 6C3.64636 6 3.30722 6.14047 3.05717 6.39052C2.80712 6.64057 2.66665 6.97971 2.66665 7.33333V8.66666M1.99998 8.66666H5.99998C6.36817 8.66666 6.66665 8.96514 6.66665 9.33333V11.3333C6.66665 11.7015 6.36817 12 5.99998 12H1.99998C1.63179 12 1.33331 11.7015 1.33331 11.3333V9.33333C1.33331 8.96514 1.63179 8.66666 1.99998 8.66666Z" stroke="white" stroke-opacity="0.72" stroke-width="1.33" stroke-linecap="round" stroke-linejoin="round"/>
</svg>
