<svg width="16" height="16" viewBox="0 0 16 16" fill="none" xmlns="http://www.w3.org/2000/svg">
<path d="M9.33335 1.33333V3.99999C9.33335 4.35362 9.47383 4.69276 9.72388 4.9428C9.97393 5.19285 10.3131 5.33333 10.6667 5.33333H13.3334M6.66669 6H5.33335M10.6667 8.66666H5.33335M10.6667 11.3333H5.33335M10 1.33333H4.00002C3.6464 1.33333 3.30726 1.4738 3.05721 1.72385C2.80716 1.9739 2.66669 2.31304 2.66669 2.66666V13.3333C2.66669 13.687 2.80716 14.0261 3.05721 14.2761C3.30726 14.5262 3.6464 14.6667 4.00002 14.6667H12C12.3536 14.6667 12.6928 14.5262 12.9428 14.2761C13.1929 14.0261 13.3334 13.687 13.3334 13.3333V4.66666L10 1.33333Z" stroke="white" stroke-width="1.33" stroke-linecap="round" stroke-linejoin="round"/>
</svg>
