<svg width="107" height="25" viewBox="0 0 107 25" fill="none" xmlns="http://www.w3.org/2000/svg">
<path fill-rule="evenodd" clip-rule="evenodd" d="M7.70577 11.1992L5.80753 10.5354C5.01107 10.3231 4.82523 9.94474 4.82523 9.62615C4.83411 9.51155 4.86633 9.39996 4.91992 9.29827C4.97351 9.19657 5.04733 9.1069 5.13685 9.03479C5.22637 8.96268 5.32969 8.90965 5.44046 8.87895C5.55123 8.84824 5.66712 8.84049 5.78099 8.85622C6.18585 8.85622 6.84957 9.01553 7.10842 10.0775L10.7124 9.20137C10.2611 6.87835 8.2832 5.33188 5.56196 5.33188C2.84071 5.33188 0.331859 6.87837 0.331859 9.54651C0.331859 11.3319 1.3208 12.8651 3.65045 13.6549L5.6416 14.4049C6.36506 14.6173 6.52435 14.989 6.52435 15.281C6.52435 15.8718 5.98674 16.1638 5.34957 16.1638C4.94124 16.1575 4.54751 16.011 4.23448 15.7487C3.92146 15.4864 3.7082 15.1244 3.63054 14.7235L0 15.7124C0.42478 18.4337 2.5885 19.6947 5.44249 19.6947C8.6748 19.6947 11.0708 18.0421 11.0708 15.2346C11.0907 12.666 9.03984 11.6306 7.70577 11.1992Z" fill="#7000F6"/>
<path fill-rule="evenodd" clip-rule="evenodd" d="M20.7544 5.3053C18.3517 5.3053 17.0442 6.63273 16.938 6.87831H16.8584V5.55087H12.2588V24.5H16.9048V18.1217H16.9845C17.0907 18.3606 18.3982 19.6947 20.8008 19.6947C23.9203 19.6947 27.3916 17.3451 27.3916 12.4867C27.3916 7.62832 23.8739 5.3053 20.7544 5.3053ZM19.792 15.6327C19.1694 15.6552 18.5543 15.4912 18.0256 15.1617C17.4968 14.8321 17.0787 14.3521 16.8247 13.7832C16.5707 13.2143 16.4924 12.5825 16.6 11.9689C16.7076 11.3552 16.9961 10.7877 17.4284 10.3392C17.8608 9.89061 18.4173 9.58148 19.0266 9.45143C19.6359 9.32138 20.2701 9.37637 20.8479 9.6093C21.4258 9.84222 21.9208 10.2425 22.2696 10.7587C22.6183 11.275 22.8049 11.8836 22.8053 12.5066C22.8302 12.9141 22.7702 13.3223 22.6291 13.7054C22.488 14.0884 22.2689 14.4379 21.9856 14.7318C21.7023 15.0257 21.361 15.2576 20.9834 15.4127C20.6058 15.5678 20.2001 15.6427 19.792 15.6327Z" fill="#7000F6"/>
<path fill-rule="evenodd" clip-rule="evenodd" d="M38.6815 6.87831H38.6019C38.4957 6.63937 37.1881 5.3053 34.7589 5.3053C31.666 5.3053 28.1948 7.65484 28.1948 12.5066C28.1948 17.3584 31.666 19.7146 34.7589 19.7146C37.1881 19.7146 38.4957 18.3872 38.6019 18.1416H38.6815V19.4691H43.3275V5.5708H38.6815V6.87831ZM35.7479 15.6327C35.1262 15.6499 34.5135 15.4813 33.9882 15.1484C33.4629 14.8155 33.0488 14.3334 32.7989 13.7639C32.549 13.1944 32.4747 12.5634 32.5854 11.9514C32.6961 11.3394 32.9868 10.7743 33.4204 10.3285C33.8539 9.88261 34.4106 9.57621 35.0193 9.44843C35.6279 9.32065 36.2608 9.3773 36.8371 9.61116C37.4134 9.84502 37.9068 10.2455 38.2543 10.7612C38.6017 11.277 38.7875 11.8847 38.7877 12.5066C38.8088 12.9154 38.7453 13.3242 38.6012 13.7073C38.457 14.0904 38.2353 14.4396 37.95 14.7331C37.6646 15.0265 37.3217 15.2579 36.9428 15.4127C36.5639 15.5675 36.1571 15.6424 35.7479 15.6327Z" fill="#7000F6"/>
<path fill-rule="evenodd" clip-rule="evenodd" d="M51.1727 14.1129V9.20142H54.1064V5.5709H51.1727V2.01999H46.5267V5.5709H44.4493V9.20142H46.5533V14.8032C46.5533 18.2744 48.5444 19.6085 51.332 19.6085C52.3741 19.6085 53.6285 19.4227 54.1595 18.832V15.3408C53.7304 15.4789 53.2828 15.5505 52.832 15.5532C51.5444 15.5532 51.1727 14.7501 51.1727 14.1129Z" fill="#7000F6"/>
<path fill-rule="evenodd" clip-rule="evenodd" d="M62.0376 9.44022C62.5635 9.46241 63.077 9.60645 63.5377 9.861C63.9985 10.1155 64.3937 10.4737 64.6924 10.9071L68.011 8.71679C67.4073 7.66956 66.5359 6.80173 65.4862 6.20225C64.4365 5.60276 63.2463 5.29318 62.0376 5.30527C58.3008 5.30527 54.5973 7.78758 54.5973 12.4801C54.5973 17.1725 58.3008 19.7146 62.0376 19.7146C63.245 19.7159 64.4317 19.401 65.4797 18.8013C66.5276 18.2016 67.4004 17.3381 68.011 16.2964L64.6924 14.1128C64.3937 14.5462 63.9985 14.9043 63.5377 15.1589C63.077 15.4134 62.5635 15.5574 62.0376 15.5796C61.2481 15.5429 60.5032 15.2035 59.9575 14.6318C59.4118 14.0601 59.1073 13.3002 59.1073 12.5099C59.1073 11.7196 59.4118 10.9597 59.9575 10.3881C60.5032 9.81642 61.2481 9.47694 62.0376 9.44022Z" fill="#7000F6"/>
<path fill-rule="evenodd" clip-rule="evenodd" d="M77.7479 5.30531C76.9849 5.27172 76.2254 5.42678 75.5366 5.75672C74.8477 6.08666 74.2509 6.58128 73.7988 7.19689V0.5H69.186V19.4491H73.7988V12.0819C73.7988 10.6416 74.4625 9.38719 76.0156 9.38719C77.5687 9.38719 78.2855 10.6416 78.2855 12.0819V19.4491H82.9316V11.2788C82.8984 7.05089 80.5488 5.30531 77.7479 5.30531Z" fill="#7000F6"/>
<path fill-rule="evenodd" clip-rule="evenodd" d="M104.374 1.8165H88.9624V9.1174L90.635 10.8364L86.2345 15.217L90.635 19.5842H97.2722L98.9381 17.9316L99.5288 19.5842H106.996V4.41162L104.374 1.8165ZM103.664 16.3121H98.9248V11.4471L91.75 18.5356L88.4314 15.217L95.5929 8.13511H90.6682V3.48908H103.664V16.3121Z" fill="#7000F6"/>
</svg>
