<svg width="16" height="16" viewBox="0 0 16 16" fill="none" xmlns="http://www.w3.org/2000/svg">
<path d="M8.00002 10L6.00002 8.00001M8.00002 10C8.93125 9.64584 9.82461 9.19916 10.6667 8.66667M8.00002 10V13.3333C8.00002 13.3333 10.02 12.9667 10.6667 12C11.3867 10.92 10.6667 8.66667 10.6667 8.66667M6.00002 8.00001C6.35478 7.07963 6.80149 6.19738 7.33335 5.36667C8.11014 4.12467 9.19177 3.10204 10.4754 2.39607C11.7589 1.6901 13.2018 1.32425 14.6667 1.33334C14.6667 3.14667 14.1467 6.33334 10.6667 8.66667M6.00002 8.00001L2.66669 8.00002C2.66669 8.00002 3.03335 5.98002 4.00002 5.33335C5.08002 4.61335 7.33335 5.33335 7.33335 5.33335M3.00002 11.0001C2.00002 11.8401 1.66669 14.3334 1.66669 14.3334C1.66669 14.3334 4.16002 14.0001 5.00002 13.0001C5.47335 12.4401 5.46669 11.5801 4.94002 11.0601C4.68089 10.8127 4.33955 10.6698 3.9815 10.6587C3.62346 10.6477 3.27394 10.7692 3.00002 11.0001Z" stroke="white" stroke-opacity="0.72" stroke-width="1.33" stroke-linecap="round" stroke-linejoin="round"/>
</svg>
