<svg width="16" height="16" viewBox="0 0 16 16" fill="none" xmlns="http://www.w3.org/2000/svg">
<path d="M12 14C12 12.5855 11.4381 11.229 10.4379 10.2288C9.43769 9.22857 8.08113 8.66667 6.66665 8.66667M6.66665 8.66667C5.25216 8.66667 3.8956 9.22857 2.89541 10.2288C1.89522 11.229 1.33331 12.5855 1.33331 14M6.66665 8.66667C8.5076 8.66667 9.99998 7.17428 9.99998 5.33333C9.99998 3.49238 8.5076 2 6.66665 2C4.8257 2 3.33331 3.49238 3.33331 5.33333C3.33331 7.17428 4.8257 8.66667 6.66665 8.66667ZM14.6665 13.3335C14.6665 11.0868 13.3332 9.00013 11.9999 8.00013C12.4381 7.67131 12.7886 7.23952 13.0202 6.74298C13.2519 6.24643 13.3575 5.70044 13.3279 5.15333C13.2982 4.60622 13.1341 4.07485 12.8502 3.60626C12.5662 3.13767 12.1711 2.7463 11.6998 2.4668" stroke="white" stroke-opacity="0.72" stroke-width="1.33" stroke-linecap="round" stroke-linejoin="round"/>
</svg>
